<svg width="33" height="22" viewBox="0 0 33 22" fill="none" xmlns="http://www.w3.org/2000/svg">
<path d="M17.2697 5.59662C17.0284 5.61885 16.8209 5.69292 16.6475 5.81515C16.4702 5.94109 16.3269 6.09665 16.2138 6.28555C16.1006 6.47445 16.0177 6.68558 15.9724 6.92633C15.9234 7.16708 15.9121 7.40784 15.9385 7.65971C15.9686 7.98195 16.0629 8.20789 16.2213 8.33752C16.3759 8.46716 16.572 8.51902 16.8058 8.5005C16.9492 8.48568 17.0774 8.46346 17.1792 8.43383C17.281 8.40419 17.3942 8.36345 17.5149 8.3153L17.726 5.61144C17.6431 5.59662 17.5677 5.58921 17.496 5.58921C17.4281 5.58551 17.3527 5.58922 17.2697 5.59662ZM0.253657 3.3039C5.48821 8.43383 10.7114 13.5712 15.9422 18.7011C16.3835 19.1382 16.5833 19.1345 17.0321 18.6974L31.8608 4.13357C32.2229 3.778 32.7245 3.47428 32.9017 3.04462C33.0827 2.60386 32.9583 2.03345 32.9583 1.5149C32.9621 0.496326 32.4529 0 31.4121 0H1.5095C0.52519 0 0.0122944 0.514845 0.00852315 1.48898C0.00852315 1.89641 0.0236083 2.30384 0.000980539 2.71127C-0.0103333 2.95943 0.0764062 3.12981 0.253657 3.3039ZM12.2426 6.28555C12.4161 5.61514 12.7215 4.98918 13.1552 4.41878C13.5927 3.84467 14.1735 3.35946 14.8938 2.95573C15.6141 2.552 16.4928 2.30384 17.5262 2.20383C18.0805 2.15198 18.6085 2.1779 19.1139 2.27421C19.623 2.37421 20.0718 2.55571 20.4678 2.82239C20.8638 3.08907 21.1919 3.43724 21.4521 3.8706C21.7085 4.30766 21.8707 4.82991 21.931 5.44476C21.9763 5.88923 21.9423 6.3337 21.8368 6.78188C21.7312 7.23005 21.5614 7.63748 21.3239 8.00417C21.09 8.37086 20.7921 8.68199 20.4263 8.93386C20.0642 9.18572 19.6532 9.33388 19.1893 9.38573C18.6576 9.43759 18.2427 9.33758 17.9372 9.09312C17.7298 9.22276 17.5111 9.33758 17.2773 9.44129C17.0434 9.545 16.7455 9.61538 16.3797 9.64871C16.1496 9.67093 15.9234 9.65612 15.7159 9.61167C15.5048 9.56352 15.32 9.47092 15.1503 9.34129C14.9843 9.20794 14.8448 9.03757 14.7316 8.82274C14.6185 8.60791 14.5468 8.34864 14.5167 8.04121C14.4676 7.556 14.5091 7.10041 14.6336 6.68187C14.758 6.26333 14.9466 5.89294 15.2031 5.57069C15.4557 5.25216 15.765 4.99288 16.1232 4.79287C16.4815 4.59286 16.8737 4.47063 17.3037 4.42989C17.6318 4.40026 17.9561 4.39285 18.2767 4.41137C18.5972 4.42618 18.9027 4.47063 19.1893 4.54471L18.8461 8.24863C18.9253 8.29678 19.046 8.3153 19.2157 8.30048C19.4872 8.27456 19.7173 8.17455 19.9134 7.99676C20.1095 7.81897 20.2641 7.60044 20.381 7.33376C20.5017 7.07078 20.5809 6.78558 20.6224 6.47075C20.6677 6.15962 20.6714 5.8596 20.6413 5.56329C20.5621 4.74102 20.2453 4.13728 19.6947 3.74837C19.1403 3.35946 18.4049 3.2113 17.4771 3.29649C16.7644 3.36316 16.1421 3.54465 15.6066 3.83356C15.0711 4.12617 14.6336 4.49286 14.2942 4.93362C13.9548 5.37439 13.7058 5.86331 13.555 6.41149C13.4079 6.95596 13.3589 7.50785 13.4117 8.07454C13.4607 8.58939 13.5814 9.02275 13.7775 9.37092C13.9698 9.72279 14.2112 10.0006 14.5016 10.2043C14.7958 10.4117 15.1239 10.5525 15.4972 10.6265C15.8668 10.6969 16.2552 10.7154 16.6663 10.6784C17.0434 10.6414 17.3904 10.5858 17.7072 10.5117C18.024 10.4339 18.3068 10.3339 18.5595 10.208C18.6387 10.3599 18.7179 10.5154 18.7933 10.6784C18.865 10.8414 18.9366 11.0006 18.9932 11.1636C18.8687 11.2414 18.7179 11.3155 18.5406 11.3821C18.3634 11.4525 18.1711 11.5155 17.9636 11.5673C17.7562 11.6229 17.5337 11.6673 17.2999 11.7081C17.0661 11.7488 16.8285 11.7785 16.5984 11.8007C16.0365 11.8525 15.4972 11.8229 14.9805 11.7118C14.4601 11.6007 13.9962 11.4007 13.5852 11.1118C13.1779 10.8229 12.8385 10.4413 12.5707 9.97095C12.3029 9.49685 12.137 8.91904 12.0691 8.24122C12.0125 7.61526 12.0691 6.95967 12.2426 6.28555ZM25.51 13.1934C25.4232 13.1082 25.3365 13.0304 25.1857 12.8859C25.0989 12.9971 25.031 13.1156 24.9368 13.2045C22.6777 15.4268 20.4187 17.6455 18.156 19.8678C17.0962 20.9086 15.8743 20.9123 14.8222 19.8789C12.5631 17.6603 10.3004 15.4379 8.04137 13.2156C7.94709 13.123 7.87543 13.0082 7.78115 12.8859C7.67178 12.9822 7.63407 13.0119 7.60013 13.0452C5.13371 15.4676 2.66728 17.8936 0.193316 20.3123C-0.0291898 20.5308 -0.0141047 20.7568 0.0500073 21.0012C0.223487 21.6605 0.725068 21.9976 1.50573 21.9976H31.4498C31.5478 21.9976 31.6459 22.005 31.7439 21.9939C32.2229 21.9383 32.6076 21.7235 32.8112 21.2827C33.0186 20.8345 33.0677 20.5827 32.6415 20.1678C30.2467 17.864 27.8821 15.5231 25.51 13.1934ZM0.0349222 18.1048L6.44612 11.8081C4.30779 9.68946 2.1657 7.57081 0.0349222 5.45958V18.1048ZM32.9319 18.064V5.45217L26.5132 11.7562L32.9319 18.064Z" fill="white" fill-opacity="0.8"/>
</svg>
