<svg width="28" height="28" viewBox="0 0 28 28" fill="none" xmlns="http://www.w3.org/2000/svg">
<path d="M14 0C6.2688 0 0 6.2688 0 14C0 21.7312 6.2688 28 14 28C21.7312 28 28 21.7312 28 14C28 6.2688 21.7312 0 14 0ZM18.3104 20.6592C18.3104 20.6592 17.9616 21.5328 16.9984 21.1136L13.4304 18.3776L11.2384 16.6624L11.248 16.5824C11.248 16.5824 17.648 10.8288 17.9104 10.5856L18.0864 10.288C18.1024 9.9904 17.6128 10.288 17.6128 10.288L9.1328 15.6736L5.6 14.4832C5.6 14.4832 5.056 14.2912 5.0048 13.872C4.9536 13.4528 5.616 13.2256 5.616 13.2256L19.6576 7.7184C19.6576 7.7184 20.8128 7.2128 20.8128 8.0512L18.3104 20.6592Z" fill="white" fill-opacity="0.8"/>
</svg>
