<svg width="28" height="28" viewBox="0 0 28 28" fill="none" xmlns="http://www.w3.org/2000/svg">
<path d="M14.2548 0C6.66298 0 0.50956 6.1088 0.50956 13.6384C0.50956 16.2144 1.23197 18.6272 2.48007 20.6848L0 28L7.61115 25.5808C9.58166 26.6592 11.8424 27.28 14.2548 27.28C21.8466 27.28 28 21.1712 28 13.6416C28 6.112 21.8466 0 14.2548 0ZM20.9887 18.3648C20.7114 19.1456 19.6052 19.7952 18.7215 19.9808C18.1184 20.1088 17.3283 20.2112 14.6708 19.12C11.2716 17.7248 9.085 14.2976 8.9173 14.0768C8.75282 13.8528 7.54342 12.2624 7.54342 10.6176C7.54342 8.9728 8.38839 8.1696 8.72702 7.8272C9.00438 7.5424 9.46879 7.4176 9.9074 7.4176C10.0525 7.4176 10.1783 7.424 10.2944 7.4304C10.633 7.4432 10.804 7.4656 11.0297 7.9968C11.3071 8.6624 11.9876 10.3072 12.0682 10.4768C12.152 10.6464 12.2327 10.8736 12.1166 11.0976C12.0069 11.328 11.9134 11.4272 11.7425 11.6256C11.5715 11.8208 11.4103 11.968 11.2393 12.176C11.0813 12.3584 10.9072 12.5536 11.1039 12.8928C11.3006 13.2224 11.9811 14.3232 12.9809 15.2032C14.2709 16.3424 15.3191 16.7072 15.6932 16.864C15.9705 16.9792 16.3059 16.9504 16.5091 16.736C16.7671 16.4576 17.0864 16 17.4121 15.5488C17.6443 15.2256 17.9346 15.184 18.241 15.2992C18.5538 15.4048 20.205 16.2176 20.5469 16.384C20.8855 16.5536 21.1113 16.6336 21.1919 16.7744C21.2693 16.9152 21.2693 17.584 20.9887 18.3648Z" fill="white" fill-opacity="0.8"/>
</svg>
